<svg width="241.59500732421876px" height="192.79999999999998px" xmlns="http://www.w3.org/2000/svg" viewBox="129.20249633789064 -21.39999999999999 241.59500732421876 192.79999999999998" style="background: rgba(0, 0, 0, 0);" preserveAspectRatio="xMidYMid"><defs><filter id="editing-extrusion" x="-100%" y="-100%" width="300%" height="300%"><feFlood result="color1" flood-color="#444"></feFlood><feConvolveMatrix order="8,8" divisor="1" kernelMatrix="1 0 0 0 0 0 0 0 0 1 0 0 0 0 0 0 0 0 1 0 0 0 0 0 0 0 0 1 0 0 0 0 0 0 0 0 1 0 0 0 0 0 0 0 0 1 0 0 0 0 0 0 0 0 1 0 0 0 0 0 0 0 0 1" in="SourceAlpha" result="extrude"></feConvolveMatrix><feComposite in="color1" in2="extrude" result="comp-extrude" operator="in"></feComposite><feOffset dx="4" dy="4" in="comp-extrude" result="offset-extrude"></feOffset><feMerge><feMergeNode in="offset-extrude"></feMergeNode><feMergeNode in="SourceGraphic"></feMergeNode></feMerge></filter></defs><g filter="url(#editing-extrusion)"><g transform="translate(167.48001146316528, 110.01000213623047)"><path d="M77.15-46.48L77.15-40.72L77.15-40.72Q77.15-36.38 76.07-32.96L76.07-32.96L76.07-32.96Q75-29.54 73.17-26.93L73.17-26.93L73.17-26.93Q71.34-24.32 68.95-22.46L68.95-22.46L68.95-22.46Q66.55-20.61 63.94-19.43L63.94-19.43L63.94-19.43Q61.33-18.26 58.67-17.72L58.67-17.72L58.67-17.72Q56.01-17.19 53.66-17.19L53.66-17.19L24.95-17.19L24.95-29.88L53.66-29.88L53.66-29.88Q56.10-30.08 58.08-30.88L58.08-30.88L58.08-30.88Q60.06-31.69 61.47-33.06L61.47-33.06L61.47-33.06Q62.89-34.42 63.67-36.35L63.67-36.35L63.67-36.35Q64.45-38.28 64.45-40.72L64.45-40.72L64.45-46.48L64.45-46.48Q64.21-48.88 63.43-50.88L63.43-50.88L63.43-50.88Q62.65-52.88 61.30-54.30L61.30-54.30L61.30-54.30Q59.96-55.71 58.06-56.52L58.06-56.52L58.06-56.52Q56.15-57.32 53.66-57.32L53.66-57.32L25.05-57.32L25.05-57.32Q22.51-57.32 21.19-56.01L21.19-56.01L21.19-56.01Q19.87-54.69 19.87-52.20L19.87-52.20L19.87 0L7.18 0L7.18-52.20L7.18-52.20Q7.18-57.08 8.96-60.50L8.96-60.50L8.96-60.50Q10.74-63.92 13.40-66.02L13.40-66.02L13.40-66.02Q16.06-68.12 19.19-69.07L19.19-69.07L19.19-69.07Q22.31-70.02 24.95-70.02L24.95-70.02L53.66-70.02L53.66-70.02Q57.96-70.02 61.38-68.92L61.38-68.92L61.38-68.92Q64.79-67.82 67.41-65.99L67.41-65.99L67.41-65.99Q70.02-64.16 71.85-61.77L71.85-61.77L71.85-61.77Q73.68-59.38 74.88-56.76L74.88-56.76L74.88-56.76Q76.07-54.15 76.61-51.49L76.61-51.49L76.61-51.49Q77.15-48.83 77.15-46.48L77.15-46.48ZM157.86-40.72L157.86-29.30L157.86-29.30Q157.86-22.90 155.64-17.53L155.64-17.53L155.64-17.53Q153.42-12.16 149.51-8.28L149.51-8.28L149.51-8.28Q145.61-4.39 140.23-2.20L140.23-2.20L140.23-2.20Q134.86 0 128.56 0L128.56 0L94.29 0L94.29 0Q92.92 0 91.75-0.49L91.75-0.49L91.75-0.49Q90.58-0.98 89.72-1.83L89.72-1.83L89.72-1.83Q88.87-2.69 88.38-3.86L88.38-3.86L88.38-3.86Q87.89-5.03 87.89-6.40L87.89-6.40L87.89-63.62L87.89-63.62Q87.89-64.94 88.38-66.11L88.38-66.11L88.38-66.11Q88.87-67.29 89.72-68.16L89.72-68.16L89.72-68.16Q90.58-69.04 91.75-69.53L91.75-69.53L91.75-69.53Q92.92-70.02 94.29-70.02L94.29-70.02L128.56-70.02L128.56-70.02Q134.86-70.02 140.23-67.82L140.23-67.82L140.23-67.82Q145.61-65.63 149.51-61.74L149.51-61.74L149.51-61.74Q153.42-57.86 155.64-52.47L155.64-52.47L155.64-52.47Q157.86-47.07 157.86-40.72L157.86-40.72ZM145.17-29.30L145.17-40.72L145.17-40.72Q145.17-44.43 143.97-47.51L143.97-47.51L143.97-47.51Q142.77-50.59 140.58-52.76L140.58-52.76L140.58-52.76Q138.38-54.93 135.33-56.13L135.33-56.13L135.33-56.13Q132.28-57.32 128.56-57.32L128.56-57.32L100.59-57.32L100.59-12.70L128.56-12.70L128.56-12.70Q132.28-12.70 135.33-13.89L135.33-13.89L135.33-13.89Q138.38-15.09 140.58-17.26L140.58-17.26L140.58-17.26Q142.77-19.43 143.97-22.49L143.97-22.49L143.97-22.49Q145.17-25.54 145.17-29.30L145.17-29.30Z" fill="#ccc"></path></g></g><style>text {
  font-size: 64px;
  font-family: Arial Black;
  dominant-baseline: central;
  text-anchor: middle;
}</style></svg>